HIERARCHY
ROOT Hips
{
	OFFSET 0.000000 0.000000 0.000000
	CHANNELS 6 Xposition Yposition Zposition Xrotation Yrotation Zrotation
	JOINT LeftUpLeg_virtual
	{
		OFFSET 0.000000 0.000000 0.000000
		CHANNELS 3 Xrotation Yrotation Zrotation
		JOINT LeftUpLeg
		{
			OFFSET 15.427100 -6.655098 0.678600
			CHANNELS 3 Xrotation Yrotation Zrotation
			JOINT LeftLeg
			{
				OFFSET 4.081073 -39.591068 13.024000
				CHANNELS 3 Xrotation Yrotation Zrotation
				JOINT LeftFoot
				{
					OFFSET -4.081074 -37.707932 -15.979700
					CHANNELS 3 Xrotation Yrotation Zrotation
					JOINT LeftToeBase
					{
						OFFSET 5.346399 -15.068900 20.645000
						CHANNELS 3 Xrotation Yrotation Zrotation
						JOINT LeftToe_End
						{
							OFFSET 2.754700 0.931300 11.300900
							CHANNELS 3 Xrotation Yrotation Zrotation
							End Site
							{
								OFFSET 0 0 0
							}
						}
					}
				}
			}
		}
	}
	JOINT RightUpLeg_virtual
	{
		OFFSET 0.000000 0.000000 0.000000
		CHANNELS 3 Xrotation Yrotation Zrotation
		JOINT RightUpLeg
		{
			OFFSET -15.569500 -6.655098 0.678600
			CHANNELS 3 Xrotation Yrotation Zrotation
			JOINT RightLeg
			{
				OFFSET -4.081825 -39.591045 13.023800
				CHANNELS 3 Xrotation Yrotation Zrotation
				JOINT RightFoot
				{
					OFFSET 4.081824 -37.707954 -15.979600
					CHANNELS 3 Xrotation Yrotation Zrotation
					JOINT RightToeBase
					{
						OFFSET -5.346400 -15.068900 20.645000
						CHANNELS 3 Xrotation Yrotation Zrotation
						JOINT RightToe_End
						{
							OFFSET -2.754700 0.931300 11.300900
							CHANNELS 3 Xrotation Yrotation Zrotation
							End Site
							{
								OFFSET 0 0 0
							}
						}
					}
				}
			}
		}
	}
	JOINT Spine_virtual
	{
		OFFSET 0.000000 0.000000 0.000000
		CHANNELS 3 Xrotation Yrotation Zrotation
		JOINT Spine
		{
			OFFSET -0.279200 12.230698 -2.892100
			CHANNELS 3 Xrotation Yrotation Zrotation
			JOINT Spine1
			{
				OFFSET -0.232667 10.192268 -1.242267
				CHANNELS 3 Xrotation Yrotation Zrotation
				JOINT Spine1_split
				{
					OFFSET -0.232667 10.192268 -1.242267
					CHANNELS 3 Xrotation Yrotation Zrotation
					JOINT Spine2
					{
						OFFSET -0.232667 10.192268 -1.242267
						CHANNELS 3 Xrotation Yrotation Zrotation
						JOINT Neck_virtual
						{
							OFFSET 0.000000 0.000000 0.000000
							CHANNELS 3 Xrotation Yrotation Zrotation
							JOINT Neck
							{
								OFFSET -0.418800 17.814194 8.416900
								CHANNELS 3 Xrotation Yrotation Zrotation
								JOINT Head
								{
									OFFSET 0.000000 7.031097 3.806800
									CHANNELS 3 Xrotation Yrotation Zrotation
									JOINT HeadTop_End
									{
										OFFSET 0.000000 24.646606 12.978600
										CHANNELS 3 Xrotation Yrotation Zrotation
										End Site
										{
											OFFSET 0 0 0
										}
									}
								}
							}
						}
						JOINT LeftShoulder_virtual
						{
							OFFSET 0.000000 0.000000 0.000000
							CHANNELS 3 Xrotation Yrotation Zrotation
							JOINT LeftShoulder
							{
								OFFSET 8.476499 7.247704 -3.868750
								CHANNELS 3 Xrotation Yrotation Zrotation
								JOINT LeftShoulder_split
								{
									OFFSET 8.476499 7.247704 -3.868750
									CHANNELS 3 Xrotation Yrotation Zrotation
									JOINT LeftArm
									{
										OFFSET 9.308998 -2.777710 0.208600
										CHANNELS 3 Xrotation Yrotation Zrotation
										JOINT LeftForeArm
										{
											OFFSET 29.972298 0.000000 0.000000
											CHANNELS 3 Xrotation Yrotation Zrotation
											JOINT LeftHand
											{
												OFFSET 26.026505 0.000000 0.000000
												CHANNELS 3 Xrotation Yrotation Zrotation
												End Site
												{
													OFFSET 0 0 0
												}
											}
										}
									}
								}
							}
						}
						JOINT RightShoulder_virtual
						{
							OFFSET 0.000000 0.000000 0.000000
							CHANNELS 3 Xrotation Yrotation Zrotation
							JOINT RightShoulder
							{
								OFFSET -7.570500 7.247704 -3.868750
								CHANNELS 3 Xrotation Yrotation Zrotation
								JOINT RightShoulder_split
								{
									OFFSET -7.570500 7.247704 -3.868750
									CHANNELS 3 Xrotation Yrotation Zrotation
									JOINT RightArm
									{
										OFFSET -9.308998 -2.777710 0.208500
										CHANNELS 3 Xrotation Yrotation Zrotation
										JOINT RightForeArm
										{
											OFFSET -29.972300 0.000000 0.000000
											CHANNELS 3 Xrotation Yrotation Zrotation
											JOINT RightHand
											{
												OFFSET -26.026505 0.000000 0.000000
												CHANNELS 3 Xrotation Yrotation Zrotation
												End Site
												{
													OFFSET 0 0 0
												}
											}
										}
									}
								}
							}
						}
					}
				}
			}
		}
	}
}
MOTION
Frames: 7
Frame Time: 0.03333333
2.097735 93.774910 -2.413025 0.000000 0.000000 0.000000 1.020655 -0.293526 -3.337879 -27.130840 -5.216732 6.774694 44.257853 -1.280853 -0.387127 23.761169 -1.144542 9.891299 -11.640206 -0.138296 1.084404 0.000000 0.000000 0.000000 0.915372 3.299153 -3.610749 -15.992978 -13.059093 8.357541 29.226291 7.448057 0.939334 11.640434 -1.823816 -5.647195 -17.686502 1.059686 2.788352 0.000000 0.000000 0.000000 -3.887653 5.947349 -2.877613 6.026307 1.159931 1.168782 -2.142625 -0.774679 1.838839 -0.127392 1.522454 -0.589256 0.000000 0.000000 0.000000 -2.633140 -0.288893 1.558936 -2.950101 -2.639216 1.669579 3.030411 2.767473 1.819526 0.000000 0.000000 0.000000 -2.379517 0.049605 1.812071 0.449423 2.258620 -2.080437 1.495202 -1.835702 0.276984 0.399748 2.065647 -71.278174 23.727439 -15.051287 1.439977 0.000000 0.000000 0.000000 -1.576900 -0.137847 1.642860 0.621617 4.278410 6.088712 -2.882597 1.290467 -2.028792 -6.711542 7.464563 77.991130 12.016572 18.436639 -3.340393 0.000000 0.000000 0.000000 
1.989598 94.294617 -0.305897 0.000000 0.000000 0.000000 0.576472 -1.286395 -3.184064 -28.938883 -3.979132 6.242333 39.057778 -0.765340 -0.624725 24.480180 -1.221996 11.425025 -12.017358 -0.308810 1.889996 0.000000 0.000000 0.000000 1.452343 2.312916 -3.612526 -15.743687 -12.930316 8.130766 30.724855 8.196304 0.919635 13.522522 -1.441712 -6.181500 -18.733074 0.814559 3.228128 0.000000 0.000000 0.000000 -3.129885 4.958967 -3.192736 6.004456 1.377253 1.237501 -2.213555 -0.716985 1.806706 0.061407 0.968502 -0.414072 0.000000 0.000000 0.000000 -2.567883 -0.252575 1.543173 -2.881763 -2.408266 1.232449 3.365060 2.787690 1.922614 0.000000 0.000000 0.000000 -2.617177 0.111084 1.783359 0.547806 2.698470 -2.253845 0.769170 -2.240643 -0.321124 0.666117 2.327407 -71.008907 23.796808 -15.599826 1.663720 0.000000 0.000000 0.000000 -1.735557 -0.103795 1.679722 0.628496 4.336657 5.530278 -2.427178 1.694670 -2.093212 -7.665731 7.842320 77.951685 12.081269 18.374414 -3.579207 0.000000 0.000000 0.000000 
2.109853 95.233925 2.188694 0.000000 0.000000 0.000000 0.238951 -1.714691 -2.817702 -30.772010 -2.577353 4.965697 30.493824 -0.592967 -0.371785 27.127362 -1.424318 10.296181 -14.073972 -0.498709 2.258495 0.000000 0.000000 0.000000 1.650354 1.369142 -3.327714 -14.029571 -13.071960 7.525385 31.686484 9.296402 0.452333 14.332597 0.043172 -7.144461 -22.549101 0.728692 3.557543 0.000000 0.000000 0.000000 -2.252776 3.901131 -3.243659 6.106336 1.576615 1.404313 -2.289491 -0.623074 1.784019 0.575286 0.477221 -0.243695 0.000000 0.000000 0.000000 -2.583691 -0.199053 1.546638 -3.104677 -1.816270 0.340579 3.675261 2.993556 1.709575 0.000000 0.000000 0.000000 -2.862160 0.201203 1.735108 0.658620 3.791382 -2.976450 -0.420900 -2.890874 -0.887840 1.378393 3.008438 -71.204866 24.254536 -15.930397 2.110344 0.000000 0.000000 0.000000 -1.832241 -0.045673 1.635060 0.704516 4.341743 4.510453 -1.976230 1.810192 -1.786775 -8.979190 9.234503 77.396596 11.982527 18.359140 -3.677915 0.000000 0.000000 0.000000 
2.455384 96.078522 4.781696 0.000000 0.000000 0.000000 0.062147 -1.722560 -2.246691 -32.423564 -0.662681 3.508435 21.142630 -0.481146 0.035053 31.517040 -1.520791 7.087412 -17.550111 -0.569996 2.221643 0.000000 0.000000 0.000000 1.570261 0.449630 -2.777974 -11.117288 -13.630760 6.639016 31.598391 10.473127 -0.216866 13.366392 2.065970 -8.691195 -27.466004 0.846783 3.720791 0.000000 0.000000 0.000000 -1.677441 2.936384 -3.060904 6.264118 1.664369 1.602593 -2.340648 -0.562896 1.812884 0.969443 0.114123 0.017027 0.000000 0.000000 0.000000 -2.676567 -0.188743 1.629143 -3.602005 -0.937449 -0.768351 3.961885 3.298434 1.280445 0.000000 0.000000 0.000000 -3.070380 0.255441 1.738328 0.799089 5.438131 -4.065450 -1.649112 -3.556256 -1.074855 2.534557 3.940152 -71.692924 24.911076 -15.879181 2.651498 0.000000 0.000000 0.000000 -1.918586 -0.039756 1.566775 0.831540 4.254769 3.155068 -1.574975 1.644599 -1.274981 -10.288012 11.031564 76.702335 11.717806 18.766035 -3.635011 0.000000 0.000000 0.000000 
2.826874 96.477898 7.706703 0.000000 0.000000 0.000000 -0.127544 -1.808392 -1.569379 -34.401443 1.755005 2.161151 13.757048 -0.589471 0.405161 37.169394 -1.766811 2.611694 -20.935778 -0.340223 1.988846 0.000000 0.000000 0.000000 1.458737 -0.430889 -2.114912 -7.174867 -14.767234 5.714860 30.025505 11.603685 -0.958118 10.525143 4.220272 -10.092086 -32.071351 1.119268 3.595347 0.000000 0.000000 0.000000 -1.261801 2.195880 -2.752534 6.363760 1.635442 1.729441 -2.325231 -0.573550 1.932331 0.912136 0.012435 0.189311 0.000000 0.000000 0.000000 -2.812439 -0.264323 1.840944 -4.311770 0.051942 -1.783912 4.208270 3.550561 0.791448 0.000000 0.000000 0.000000 -3.227903 0.248637 1.852283 0.985904 7.339288 -5.248026 -2.487198 -4.023080 -0.899693 3.787847 4.742916 -72.301439 25.469639 -15.359405 3.086266 0.000000 0.000000 0.000000 -2.007176 -0.124433 1.557631 0.973913 4.135755 1.686848 -1.164364 1.475627 -0.804599 -11.370539 12.539517 76.321859 11.305168 19.789288 -3.449288 0.000000 0.000000 0.000000 
3.151175 96.115692 11.279053 0.000000 0.000000 0.000000 -0.407384 -2.529588 -0.940350 -36.080385 4.725571 0.924524 9.551417 -0.584272 0.479450 41.831360 -1.657478 -0.670726 -22.971670 0.102097 1.692502 0.000000 0.000000 0.000000 1.098364 -0.771796 -1.561709 -2.568910 -16.287011 4.979197 27.418681 12.607446 -1.534014 6.263189 6.070754 -10.479014 -34.622584 1.489924 3.186520 0.000000 0.000000 0.000000 -1.226628 1.374665 -2.459482 6.330031 1.501029 1.681701 -2.237428 -0.657604 2.130497 0.715454 0.165068 0.229806 0.000000 0.000000 0.000000 -2.957399 -0.428801 2.150578 -5.155359 0.989566 -2.445546 4.389581 3.646778 0.421786 0.000000 0.000000 0.000000 -3.313886 0.173231 2.085658 1.196688 9.027960 -6.225892 -2.848807 -4.427591 -0.551770 4.839066 5.144810 -72.892721 25.634701 -14.205036 3.248104 0.000000 0.000000 0.000000 -2.075656 -0.281453 1.659552 1.107804 4.061429 0.301000 -0.680718 1.306353 -0.423208 -11.998056 13.196080 76.644285 10.821712 21.148906 -3.160752 0.000000 0.000000 0.000000 
3.305826 95.096649 15.310719 0.000000 0.000000 0.000000 -0.809903 -3.903066 -0.480306 -36.935266 8.458164 -0.066896 8.347202 -0.302310 0.337263 43.253898 -0.733535 -1.020909 -23.753257 0.462112 2.022985 0.000000 0.000000 0.000000 0.540465 -0.760133 -1.118665 2.472417 -17.568973 4.784100 24.466899 13.159237 -1.828709 1.045938 7.042091 -9.935249 -35.547610 1.840138 2.596391 0.000000 0.000000 0.000000 -1.631570 0.716110 -2.284887 6.043281 1.307558 1.432993 -2.084849 -0.779016 2.365125 0.677937 0.722305 0.061644 0.000000 0.000000 0.000000 -3.022414 -0.633395 2.498711 -5.999014 1.785291 -2.578003 4.486477 3.562177 0.285433 0.000000 0.000000 0.000000 -3.306103 0.067127 2.375121 1.399099 10.168636 -6.816078 -2.724081 -4.772637 0.017428 5.445273 5.018904 -73.407479 25.398306 -12.463501 3.163538 0.000000 0.000000 0.000000 -2.104698 -0.455628 1.834478 1.169922 4.037316 -0.814270 -0.220960 1.098395 -0.179874 -12.120223 12.768688 77.650925 10.372313 22.208860 -2.861487 0.000000 0.000000 0.000000 
